<?xml version="1.0" encoding="UTF-8"?>
<svg id="Layer_1" data-name="Layer 1" xmlns="http://www.w3.org/2000/svg" viewBox="0 0 282 266.73">
  <defs>
    <style>
      .cls-1 {
        fill: #231f20;
      }
    </style>
  </defs>
  <path class="cls-1" d="M129.41,265.33v-13.65c0-13.06-.67-26.83-1.95-41.26-1.31-14.48-3.28-29.72-5.87-45.71-2.64-15.97-5.53-30.5-8.72-43.51s-6.66-24.56-10.42-34.63c-8.15-21.82-16.64-38.19-25.43-49.06-8.61-10.65-17.44-16-26.53-16-4.02,0-7.64.87-10.9,2.59-3.26,1.74-6.15,4.36-8.67,7.87-2.57,3.56-4.5,7.66-5.78,12.32-1.31,4.68-1.95,9.91-1.95,15.72,0,7.69,1.24,15.49,3.74,23.43,2.5,7.99,6.27,16.09,11.27,24.35.41.67.18,1.54-.48,1.93-.23.14-.48.21-.73.21h-20.72c-.57,0-1.06-.34-1.29-.83-4.96-9.04-8.7-17.83-11.2-26.32-2.5-8.56-3.76-16.84-3.76-24.81s1.19-15.77,3.6-22.67c2.41-6.91,6.01-13.13,10.83-18.66,4.82-5.55,10.26-9.71,16.34-12.48C36.86,1.38,43.53,0,50.81,0c11.75,0,22.58,3.95,32.56,11.82,9.87,7.8,18.84,19.46,26.94,35,8.03,15.42,14.6,33.51,19.64,54.21,4.96,20.31,8.49,43.14,10.58,68.5h.87c1.77-24.85,5.09-47.39,9.98-67.58,4.98-20.56,11.57-38.69,19.8-54.39,8.26-15.79,17.37-27.63,27.33-35.55C208.63,3.99,219.55,0,231.32,0c7.27,0,13.95,1.38,20.01,4.11,6.06,2.75,11.5,6.86,16.32,12.32l.07.09c4.75,5.44,8.31,11.59,10.69,18.41,2.39,6.86,3.58,14.41,3.58,22.6s-1.24,16.36-3.74,24.99c-2.48,8.61-6.2,17.49-11.13,26.64-.25.48-.73.73-1.24.73h-20.86c-.78,0-1.42-.64-1.42-1.42,0-.28.09-.55.23-.76,5-8.88,8.74-17.42,11.24-25.57,2.5-8.12,3.74-15.9,3.74-23.29,0-5.92-.64-11.27-1.93-16.04-1.26-4.73-3.17-8.9-5.69-12.48l-.02-.05c-2.5-3.51-5.39-6.15-8.65-7.89-3.26-1.74-6.95-2.62-11.06-2.62-8.77,0-17.3,4.96-25.61,14.85-8.49,10.12-16.71,25.34-24.6,45.65-4.04,10.4-7.76,22.33-11.15,35.82-3.4,13.49-6.47,28.53-9.25,45.09v.05c-2.75,16.59-4.82,32.5-6.2,47.69-1.38,15.15-2.07,29.65-2.07,43.53v12.85c0,.78-.64,1.42-1.42,1.42h-20.33c-.78,0-1.42-.62-1.42-1.4h0Z"/>
</svg>