<?xml version="1.0" encoding="UTF-8"?>
<svg id="Layer_1" data-name="Layer 1" xmlns="http://www.w3.org/2000/svg" viewBox="0 0 396.12 410.35">
  <g>
    <path d="M106.24,289.44c4.98-9.34-7.37-17.95,4.21-28.1-14.15,1.36-11.87,20.94-4.21,28.1h0Z"/>
    <path d="M108.34,211.61c.93,4.13-2.87,13.1,4.36,10.82.25-2.48-.5-3.87-2.24-4.31.37-2.47,3.92-1.75,6.41-2.11-.26-8.08-3.09-5.51-8.52-4.4h0Z"/>
    <path d="M285.8,153.41c.87,5.13-9.75-1.19-6.42,6.39,27.46-6.85,15.93,25.65,29.9,32.42,4.22-4.86-2.25-12.08,0-21.6,21.46,12.23-20.59,35.4,0,47.51,11.2-12.01,19.47-28.95,17.15-51.82-12.24-12.89-29.74-20.3-49.29-25.9-5.66,6.49-2.81,11.72-1.99,21.58,3.33-3.28,4.54-14.43,10.65-8.57h0Z"/>
    <path d="M48.38,357.53c.05.32.08.63.12.93.33.09.65.17.95.23-.36-.38-.71-.77-1.07-1.15Z"/>
    <path d="M388.41,164.2c-12.32-4.93-13.83-20.67-23.6-28.09,5.06-35.07-14.3-50.26-14.94-73.43-7.91-.82-5.64,8.77-14.95,6.49-2.55-24.81-20.05-34.52-36.35-45.43C265.8,43.06,252.55,1.6,230.19.04c-12.45-.82-19.99,10.46-34.18,8.71-6.98-2.55.06-5.69-6.42-8.71-18.74,3.38-21.89,22.53-49.13,17.3-10.43,2.49-11.73,14.09-25.63,12.9-3.67,4.31.18,2.75,0,8.71-43.61-23.26-56.82,24.04-81.29,58.24-14.94,20.85-35.92,36.26-25.68,60.51,13.04-9.62,4.88-44.75,29.97-47.54,6.05-22.66,18.5-38.81,29.89-56.12,6.47,7.88,20.83,21.45,25.69,12.94,9.74,13.09,27.43-1.47,34.12,8.57,15.54-9.66,39.37-21.97,32.11-47.38-7.3,10.61-11.88,23.95-19.18,34.5-7.76.74.68-7.86-4.3-12.89-8.83,13.52-50.93,23.06-59.9,4.26.78-9.03,15.69-15.26,21.43-6.48,18.74-1.65,29.07-19.12,44.86-23.82,13.89-4.02,31.84,1.95,42.78-14.99,19.39,12.44,53.65-11.92,64.19,14.99,1.79,6.98-5.69,4.59-6.5,8.72-2.28,10.13,4.9,10.9,8.52,15.1,4.62.36,1.02-7.67,2.2-10.79,4.69,23.59,12.7,44.65,32.07,58.29,9.66-7.87,26.68,3.41,42.64,2.12-10.86,6.41,7.73,3.83,15.02,4.4,2.17-2.84,2.02-7.97,4.32-10.82,16.38,15.38,1.44,49.24,19.28,62.64-1.87,2.45-2.9,5.76-2.25,10.79,3.99,4.21,7.91.66,12.88,0,2.5,16.21,6.71,30.61,14.95,41.03-4.79,15.29-8.03,32.19-25.59,34.5-15.69-6.98-6.17-27.92-12.92-45.32,4.5-9.53,15.19-15.46,17.09-21.6-10.28-3.95-21.62,9.8-27.77,17.3-1.68,7.42,3.14,8.24,2.17,15.12-18.23,25.54-8.9,54.63,8.51,71.2-21.58,29.32-25.7,76.28-55.57,97.26.21-6.62-4.43-1.29-12.77,0-.91-1.29,3.66-2.75,4.27-2.22-19.78-22.7-57.76,23.41-83.42,17.2-6.97-.63,8.35-6.6,0-8.57,3.05-1.86,7.41,4.56,10.79-4.34-3.69-9.42-10.5,5.69-21.42,2.22,2.49,3.17,2.49,5.39,0,8.6-14.14-5.58-30.21-2.67-42.77,4.31-5.87-10.27,10.86-16.33,8.64-30.21-14.94,3-19.6,9.33-30.07,4.3-1.06-11.91,13.57-7.98,10.74-21.61-12.51-3.51-23.13,12.25-36.3,15.09.09-14.26,15.85-12.64,14.95-28.02-20.84-1.56-17.78,20.98-42.72,15.11,4.51-7.25,19.9-8.96,12.7-21.61-18.27,0-27.96,25.09-40.53,17.31-5.59.53-3.11,10.16-2.27,16.28.36.39.71.77,1.07,1.15,5.88,1.19,5.81-3.66,7.61-6.61,20.89,5.64,36.95,8.49,57.78,17.21,6.01,3.21,2.28,5.75,4.2,15.19,12.09-.56,11.83-2.03,21.42-6.49,1.61,4.67-.41,14.82,6.29,19.39,9.68-2.49,17-7.4,30.05-6.48-14.84,18.95-44.87,8.03-61.96,6.48.18-3.63-5.7-5.03-8.6-10.79-26.81.78-42.4-12.41-56.8-27.89-.3-.06-.62-.13-.95-.23-.04-.3-.07-.61-.12-.93-5.59-6.08-11.04-12.46-16.94-18.46-7.26-7.35-25.15-16.87-25.65-30.21-.56-15.04,18.39-32.69,19.24-49.63.65-15.03-8.65-23.9-10.74-38.92-1.24-8.86,5.04-22.68-2.02-34.49-19.26,21.67,3.67,50.52,2.02,73.42-1.58,22.99-29.97,57.88-2.02,79.84,29.67,14.45,36.61,51.45,70.49,51.81,2.26,0,5.56-3.78,4.32-4.28,23.55,6.14,38.85,25.14,64.04,23.67-.63-3.47,2.04-3.65,2.12-6.38,12.31,12.71,27.11-10.94,29.93-15.22,12.09,3.4,34.7,4.77,51.2,0,7.21-1.98,11.02-9.13,15.15-10.69,29.49-11.28,53.53,11.44,72.51-13,6.6-8.43,1.96-12.18,6.41-23.72,11.02-27.62,34.87-53.81,42.78-95.02,40.21-9.05,20.42-55.11,17.19-82.03ZM279.37,77.77c-3.91-4.01-7.07-8.66-10.72-12.92,9.37-.81,13.29,3.96,17.15,8.61-4.25-.63-4.25,2.95-6.43,4.31ZM322.03,69.17c-27.64-2.28-43.96-16.02-55.54-34.6,29.86-6.39,61.7,5.12,55.54,34.6Z"/>
    <path d="M174.65,97.19c-.18,5.55-9.19,2.28-6.41,10.79,7.24,5.29,14.93-4.04,17.09-10.79,7.71-.57,10.34,4.01,17.1,4.4-1.83,2.45-2.75,5.75-2.18,10.78,12.02,3.12,15.41,1.56,27.83,4.3-6.97-6.85,6.3-.82,4.29-8.7,4.84,2.94,7.05,8.7,17.16,6.51,1.21-9.32-1.06-21.23-2.25-30.21-6.63-1.65-2.61,7.42-10.67,4.31,6.88-4.86,5.17-7.16,4.27-17.23-12.64-6.8-26.05-19.24-29.93-28.11-8.64,6.06-20.15-.25-25.61-4.29-9.61-.36-10.31,8.33-15.02,12.89,9.76-7.5,22.08,3.48,42.85,2.19,4.71.3-2.9,5.43,0,10.82,9.06.83,10.43,9.54,19.2,10.69.9,5.33-3.92,4.76-2.17,10.82-17.69-11.35-36.55,7.44-49.14,6.48.27-3.9,7.23-1.26,8.54-4.26-2.89-10.82-12.52-14.75-12.79-28.02-20.63.73-10.43,29.19-2.15,36.62h0Z"/>
    <path d="M20.73,140.4c3.64.36,10.46-2.94,10.71,6.49,11.58-.28,9.38-10.32,8.53-19.43-9.65,1.02-17.03,4.35-19.24,12.94h0Z"/>
    <path d="M57.06,142.59c8.06,10.81,4.46,36.17-6.41,41.03h-4.27c-7.98-11.36,3.48-31.7,10.67-41.03h0ZM44.14,164.2c-2.73-3.68-8.15-4.67-6.29-13.01-19.76,18.44,20.4,50.06-4.3,69.11-1.59,6.59,3.69,6.32,2.16,12.92,11.2-10.99,4.51-24.88,12.79-38.81,6.54-10.78,18.53-13,21.36-23.79,4.36-15.94-1.12-26.83-8.54-43.15-.3-.68-3.07,3.21-2.17,4.34-4.98-5.99-3.06-16.3,0-25.91-2.03-4.5-10.93-1.85-10.65-8.7-3.73,1.98-7.35,4.02-6.35,10.79h10.66c-4.18,20.35-7.74,34.34-8.66,56.22h0Z"/>
    <path d="M157.46,265.61c-.06,3.04,1.07,4.76,2.19,6.51-6.35-1.92-10.46,9.22-12.9,4.31,4.05-3.18,5.43-8.96,10.71-10.82h0ZM166.05,224.62c-.07,11.54-11.21,23.16-19.3,19.42,7.48-5.48,8.85-17.04,19.3-19.42h0ZM142.55,254.82h10.69c-3.37,8.07-11.22,30.04-17.07,21.6,8.29-5.51,4.18-12.7,6.38-21.6h0ZM127.54,198.7c2.02,8.24-.34,28.02,10.74,36.74,2.6,19.03-12.76,33.48-2.12,49.6-.69,8.07-12.08,5.12-17.13,8.7.31,5.6,17.82,4.86,10.72,10.82,5.91,9.8,19.49-10.45,21.35,2.09,1.8.46,2.04-.83,2.13-2.09h4.22c-1.75-8.07-12.23-10.18-17-4.32-6.04-3.44,11.52-7.79,4.24-12.98,9.77,1.92,12.14-3.56,19.17-4.34,10.25-22.96,17.57-46.58,17.19-71.3-3.79,1.95-7.47,8.07-6.4-2.08-13.11,1.09-14.64,14.36-29.96,8.6,6.88-2.32,11.58-6.99,19.17-8.6v-10.83c-10.07-.09-12.41,7.62-19.17,10.83,2.05-11.55,15.31-11.91,23.53-17.31-7.99-14.65-25.84-6.71-36.42-17.24-7.04,7.81,4.11,10.29,6.48,15.11,3.61.11,5.51-1.62,6.41-4.29,2.36,1.45-.44,7.14,6.41,8.6-.9,4.14-8.31,1.64-6.41,8.6-2.08-3.65-7.07-6.75-8.53,0-3.12-2.66-3.24-8.21-6.41-10.79-5.96,2.58-13.66,3.48-12.9,13.01,2.56-3.21,8.13-3.41,10.68-6.53h0Z"/>
    <path d="M247.27,302.33c1.42,2.94,4.53,4.04,8.6,4.31-4.07,15.38-15.41,2.78-27.8,8.7-.87-11.72,16.18-5.22,19.2-13.01h0ZM283.65,300.23c.71-4.22-5.17-7.31-6.51-15.19-26.41,0-38.9,5.22-59.71,17.29,4.17,7.98.19,14.57,0,23.73,18.39-2.54,49.91,1,53.29-25.83,6.86-1.1,8.47,3.03,12.93,4.32,5.17,43.65-33.66,33.33-51.29,56.13,27.15-5.06,66.2-16.48,59.79-62.63-2.87-2.82-7.91-2.82-8.5,2.19h0Z"/>
    <path d="M300.74,211.61c-6.6-1.56-4.11,5.96-10.68,4.4-3.01-12.08-11.79-25.56-21.41-36.74.33-6.85,4.86-9.5,4.26-17.3-11.2-5.93-22,.46-25.63,8.64,16.54,14.65,3.15,43.37,6.46,62.6,6.72.36,7.37-5.45,8.5-10.78,7.65,3.11,10.07,11.45,21.41,10.78-4.83,10.98-22.89,7.32-36.38,6.51,19.65,19.13,86.09-6.87,53.47-28.11h0Z"/>
  </g>
  <path d="M199.06,140.4s-4.52,27.63,0,56.45"/>
</svg>