<?xml version="1.0" encoding="UTF-8"?>
<svg id="Layer_1" data-name="Layer 1" xmlns="http://www.w3.org/2000/svg" viewBox="0 0 332.86 332.86">
  <g>
    <path d="M17.26,178.58c2.89,23.65,9.13,43.94,19.37,60.23,3.14-5.9,6.56-11.52,9.86-17.26-14.2-9.87-24.25-23.89-29.24-42.97Z"/>
    <g>
      <path d="M284.25,48.96C258.69,22.7,223.13,3.94,175.76,0h-18.67c-47.37,3.7-82.33,22.81-108.14,48.61C23.25,74.32,3.68,108.79.35,156.39c.06.41-.08.63-.35.7v18.67c3.8,47.51,22.89,82.73,48.96,108.49,26.07,25.76,60.97,45.16,108.84,48.61h17.26c48.04-3.4,82.86-22.98,108.84-48.96,25.98-25.98,45.57-60.8,48.96-108.84v-17.26c-3.31-48.01-23.04-82.58-48.61-108.84ZM282.84,272.27c-24.8,27.57-58.56,47.62-106.02,51.07-50.13,3.65-90.65-16.92-116.24-40.15-26.59-24.15-47.81-58.68-51.07-106.02-3.54-51.4,16.3-90.29,40.15-116.24,18.54-20.17,41.48-36.26,72.56-45.44,10.59-3.13,22.41-5.25,33.81-5.99,50.95-3.28,90.35,16.61,116.59,40.51,26.52,24.15,47.46,59.15,50.72,106.37,3.56,51.64-16.5,89.2-40.51,115.88Z"/>
      <path d="M262.06,64.81c1.58-1.58,6.02-5.6,5.99-6.34-.05-1.26-7.11-6.16-9.51-8.1-22.86-18.54-55.3-32.16-92.64-33.11,17.38,30.52,35.51,60.3,53.19,90.52,14.46-13.94,28.47-28.47,42.97-42.97Z"/>
      <path d="M19.02,140.89c11.24-23.62,28.52-47.83,61.64-49.66,13.99-.78,26.17,2.3,36.63,6.69,15.96-26.54,31.62-53.39,47.2-80.31-43.49,1.65-74.87,17.64-98.98,39.45-23,20.81-39.87,49.36-46.49,83.83Z"/>
      <path d="M161.67,47.9c-10.48,19.34-21.75,37.89-32.05,57.41,14.14,11.98,26.38,28.42,27.83,51.78,1.54,24.82-8.5,45.55-24.3,59.18-15.8,13.61-38.1,22.35-63.75,15.85-3.3-.84-5.75-2.08-9.86-3.17-2.8,5.19-6.06,9.91-8.45,15.5,36.72-.5,74.22-.22,110.95-.7-.23-65.16.47-131.26-.35-195.84Z"/>
      <path d="M208.87,113.77c-10.98-17.2-21.04-35.32-32.41-52.13v81.37c5.77-3.58,10.74-9.25,16.2-14.09,5.58-4.94,11.54-9.61,16.2-15.15Z"/>
      <path d="M277.21,67.28c-.35,0-.42-.29-.7-.35-13.22,12.35-25.78,26.13-38.39,38.75-4.16,4.16-8.92,7.82-11.98,12.68,23.41,40.23,45.91,81.37,69.74,121.17,12.81-24.48,22.06-57.66,16.91-94.05-4.63-32.72-19.41-57.94-35.58-78.2Z"/>
      <path d="M108.86,109.54c-8.48-3.21-16.68-6.51-28.53-5.64-29.33,2.16-55.93,30.26-53.54,63.05,1.46,20.09,11.78,32.51,24.3,43.68,19-33.95,39.05-66.86,57.77-101.09Z"/>
      <path d="M123.3,211.69c14.3-11.02,24.68-29.01,23.25-52.13-1.24-19.92-11.54-31.71-23.95-41.21-4.86,7.08-10.44,16.8-15.5,25.36-14.82,25.1-29.63,50.95-43.32,75.38,21.62,8.2,45.4,3.49,59.53-7.4Z"/>
      <path d="M214.51,126.1c-12.21,13.04-25.04,25.44-36.98,38.75,34.3,25.58,67.62,52.13,101.8,77.84-21.49-38.98-42.84-78.09-64.81-116.59Z"/>
      <path d="M176.47,183.16v60.23h80.66c-25.68-19.87-53.52-40.65-80.66-60.23Z"/>
      <path d="M177.17,254.31c.16,20.59-.16,40.7-.35,60.94,48.18-5.37,84.56-26.01,107.43-56.36,1.51-2,3.99-4.07,3.52-5.99-36.95.39-73.97.7-110.6,1.41Z"/>
      <path d="M47.9,256.78c26.7,31.18,59.7,56.06,114.12,59.53v-59.88c-37.92.24-76.79-.47-114.12.35Z"/>
    </g>
  </g>
  <g>
    <path d="M17.26,178.58c2.89,23.65,9.13,43.94,19.37,60.23,3.14-5.9,6.56-11.52,9.86-17.26-14.2-9.87-24.25-23.89-29.24-42.97Z"/>
    <g>
      <path d="M284.25,48.96C258.69,22.7,223.13,3.94,175.76,0h-18.67c-47.37,3.7-82.33,22.81-108.14,48.61C23.25,74.32,3.68,108.79.35,156.39c.06.41-.08.63-.35.7v18.67c3.8,47.51,22.89,82.73,48.96,108.49,26.07,25.76,60.97,45.16,108.84,48.61h17.26c48.04-3.4,82.86-22.98,108.84-48.96,25.98-25.98,45.57-60.8,48.96-108.84v-17.26c-3.31-48.01-23.04-82.58-48.61-108.84ZM282.84,272.27c-24.8,27.57-58.56,47.62-106.02,51.07-50.13,3.65-90.65-16.92-116.24-40.15-26.59-24.15-47.81-58.68-51.07-106.02-3.54-51.4,16.3-90.29,40.15-116.24,18.54-20.17,41.48-36.26,72.56-45.44,10.59-3.13,22.41-5.25,33.81-5.99,50.95-3.28,90.35,16.61,116.59,40.51,26.52,24.15,47.46,59.15,50.72,106.37,3.56,51.64-16.5,89.2-40.51,115.88Z"/>
      <path d="M262.06,64.81c1.58-1.58,6.02-5.6,5.99-6.34-.05-1.26-7.11-6.16-9.51-8.1-22.86-18.54-55.3-32.16-92.64-33.11,17.38,30.52,35.51,60.3,53.19,90.52,14.46-13.94,28.47-28.47,42.97-42.97Z"/>
      <path d="M19.02,140.89c11.24-23.62,28.52-47.83,61.64-49.66,13.99-.78,26.17,2.3,36.63,6.69,15.96-26.54,31.62-53.39,47.2-80.31-43.49,1.65-74.87,17.64-98.98,39.45-23,20.81-39.87,49.36-46.49,83.83Z"/>
      <path d="M161.67,47.9c-10.48,19.34-21.75,37.89-32.05,57.41,14.14,11.98,26.38,28.42,27.83,51.78,1.54,24.82-8.5,45.55-24.3,59.18-15.8,13.61-38.1,22.35-63.75,15.85-3.3-.84-5.75-2.08-9.86-3.17-2.8,5.19-6.06,9.91-8.45,15.5,36.72-.5,74.22-.22,110.95-.7-.23-65.16.47-131.26-.35-195.84Z"/>
      <path d="M208.87,113.77c-10.98-17.2-21.04-35.32-32.41-52.13v81.37c5.77-3.58,10.74-9.25,16.2-14.09,5.58-4.94,11.54-9.61,16.2-15.15Z"/>
      <path d="M277.21,67.28c-.35,0-.42-.29-.7-.35-13.22,12.35-25.78,26.13-38.39,38.75-4.16,4.16-8.92,7.82-11.98,12.68,23.41,40.23,45.91,81.37,69.74,121.17,12.81-24.48,22.06-57.66,16.91-94.05-4.63-32.72-19.41-57.94-35.58-78.2Z"/>
      <path d="M108.86,109.54c-8.48-3.21-16.68-6.51-28.53-5.64-29.33,2.16-55.93,30.26-53.54,63.05,1.46,20.09,11.78,32.51,24.3,43.68,19-33.95,39.05-66.86,57.77-101.09Z"/>
      <path d="M123.3,211.69c14.3-11.02,24.68-29.01,23.25-52.13-1.24-19.92-11.54-31.71-23.95-41.21-4.86,7.08-10.44,16.8-15.5,25.36-14.82,25.1-29.63,50.95-43.32,75.38,21.62,8.2,45.4,3.49,59.53-7.4Z"/>
      <path d="M214.51,126.1c-12.21,13.04-25.04,25.44-36.98,38.75,34.3,25.58,67.62,52.13,101.8,77.84-21.49-38.98-42.84-78.09-64.81-116.59Z"/>
      <path d="M176.47,183.16v60.23h80.66c-25.68-19.87-53.52-40.65-80.66-60.23Z"/>
      <path d="M177.17,254.31c.16,20.59-.16,40.7-.35,60.94,48.18-5.37,84.56-26.01,107.43-56.36,1.51-2,3.99-4.07,3.52-5.99-36.95.39-73.97.7-110.6,1.41Z"/>
      <path d="M47.9,256.78c26.7,31.18,59.7,56.06,114.12,59.53v-59.88c-37.92.24-76.79-.47-114.12.35Z"/>
    </g>
  </g>
</svg>