<?xml version="1.0" encoding="UTF-8"?>
<svg id="Layer_1" data-name="Layer 1" xmlns="http://www.w3.org/2000/svg" viewBox="0 0 672.7 283.73">
  <path d="M394.07,40.33c-4.73-11.25-13.12-20.34-25.09-23.79-3.23-.93-6.69-1.46-10.14-1.46h-.02c-7.04,0-14.03,2.18-18.84,7.59-8.41,9.45-6.82,24.19-5.37,35.74,1.38,10.95,3.9,21.79,7.47,32.23,3.97,11.6,9.18,22.77,15.51,33.27,2.93,4.85,6.14,10.32,10.17,14.68.49.53,1.27.68,1.9.34,2.99-1.6,6.03-2.88,9.04-3.65,1.42-.37,2.68-.53,3.82-.53h.01c3.42,0,5.73,1.51,7.68,3.64.85.93,2.38.55,2.69-.67,1.74-6.66,3.29-13.36,4.58-20.09,4.75-24.87,6.61-53.43-3.42-77.32ZM390.25,133.59c-2.03-1.47-4.51-2.43-7.7-2.44h-.05c-1.48,0-3.01.21-4.7.64-2.69.69-5.46,1.75-8.4,3.22-3.13-3.68-5.82-8.14-8.24-12.16l-.48-.8c-6.2-10.28-11.31-21.24-15.19-32.57-3.51-10.25-5.97-20.85-7.31-31.51-1.61-12.87-2.48-25.07,4.48-32.89,4.69-5.28,11.37-6.38,16.16-6.38,2.99,0,6.15.45,9.14,1.32,10,2.88,18.08,10.59,22.76,21.71,8.13,19.35,9.18,43.96,3.21,75.24-1.01,5.3-2.23,10.78-3.7,16.62Z"/>
  <path d="M517.65,151.16c-.6,1.3-1.2,2.59-1.8,3.89-.7,1.8-1.01,3.6-.99,5.4,2.14-2.71,5.82-8.17,2.8-9.28Z"/>
  <path d="M589.7,148.72c-4.46,3.18-9.6,8.38-10.68,13.67,5.83-2.94,10.34-7.25,10.68-13.67Z"/>
  <path d="M382.59,142.33h0c-1.06,0-2.28.17-3.71.55-.01,0-.03,0-.04.01-1.54.41-1.52,2.61.02,3.04,1.62.46,3.33.71,5.17.71.09,0,.18,0,.27,0h.03c3.33,0,3.48,7.5.15,7.54-.08,0-.17,0-.25,0h-.08c-5.76,0-10.53-2.07-14.61-5.25-.52-.4-1.24-.44-1.79-.09-3.72,2.33-7.33,4.84-10.81,7.52-9.18,7.08-17.55,15.3-24.6,24.51-12.34,16.12-20.91,35.23-23.29,55.48-1.17,9.98-2.26,23.55,6.77,30.46,2.06,1.58,4.14,2.25,6.2,2.26h0c9.59,0,18.72-14.67,23.43-21.12,13.1-17.95,22.75-38.09,30.65-58.8,5.08-13.33,9.84-26.93,13.86-40.72.13-.45.05-.94-.21-1.33-1.95-2.92-3.74-4.75-7.17-4.75ZM372.73,187.85c-8.92,23.38-18.8,42.34-30.2,57.95-.54.75-1.15,1.6-1.8,2.52-4.22,5.98-12.07,17.11-18.72,17.11-1.37,0-2.68-.49-4.01-1.51-7.25-5.55-6.58-16.93-5.38-27.17,2.2-18.7,10-37.27,22.57-53.7,6.67-8.72,14.72-16.75,23.94-23.85,3-2.31,6.14-4.51,9.35-6.57,4.58,3.25,9.56,4.97,14.84,5.13-3.01,9.42-6.51,19.36-10.6,30.08Z"/>
  <path d="M442.63,136.83c.41,0,.83-.03,1.25-.08.17-.02.47-.09.69-.15,1.27-.27,2.43-.79,3.47-1.54,2.47-1.79,4.05-4.78,4.34-8.19.32-3.68-.87-7.29-3.17-9.67h0c-1.7-1.75-3.96-2.71-6.37-2.71-3.97,0-7.8,2.62-9.32,6.38-1.45,3.59-.89,8.28,1.39,11.66,1.86,2.77,4.6,4.3,7.71,4.3ZM440.22,123.57c.42-1.05,1.58-1.87,2.63-1.87.47,0,.85.17,1.19.52.84.87,1.3,2.45,1.16,4.02-.12,1.33-.62,2.41-1.4,2.97-.23.16-.48.27-.76.32-.07.01-.35.05-.41.07-.24,0-.98,0-1.73-1.11-.92-1.37-1.23-3.58-.68-4.93Z"/>
  <path d="M578.69,208.51c-8.37,5.15-24.78,30.87-6.15,30.88h.03c.27,0,.54,0,.82-.02,9.82-.38,19.96-5.08,27.59-11.05,7.8-6.1,14.21-14.36,17.41-23.8.52-1.54,1-3.18,1.39-4.88-2.83.78-5.71,1.42-8.61,1.88-10.9,1.73-22.73,1-32.48,6.99ZM596.54,222.64c-7.27,5.68-16.02,9.24-23.43,9.52-.19,0-.36.01-.54.01-.63,0-1.08-.04-1.4-.09.12-4.15,6.8-14.65,11.3-17.42,5.7-3.5,12.86-4.19,20.44-4.91,1.79-.17,3.62-.35,5.46-.56-2.89,5-6.94,9.63-11.83,13.45Z"/>
  <path d="M670.14,146.08c-1.89-2.3-4.59-3.61-7.39-3.62h0c-3.8,0-8.13,2.62-9.25,8.47-2.26,11.82-10.46,22.02-22.92,28.83-.44-1.17-.94-2.3-1.5-3.39-1.42-2.77-3.29-5.24-5.5-7.31,2.23-3.41,3.97-7.15,5.23-11.19.76-2.45,1.01-6.5-.79-9.87-1.23-2.3-3.23-3.96-5.65-4.69-2.43-.73-4.88-1.09-7.3-1.09-5,0-9.34,1.48-13.23,3.69-.1-1.67-.34-3.37-.7-5.11-.89-4.23-4.41-8.5-9.43-8.51-1.48,0-2.96.39-4.28,1.13-8.18,4.6-14.11,10.98-17.63,18.96-.41.93-.86,2.04-1.3,3.27-.43-1.67-.99-3.34-1.68-5-1.46-3.49-4.41-5.77-7.83-6.13-.43-.88-.92-1.66-1.42-2.29-1.9-2.41-4.47-3.74-7.25-3.74-3.27,0-6.22,1.89-7.91,5.06-3.59,6.75-6.74,12.4-10.86,16.95-.93.3-1.94.79-2.94,1.58,2.27-5.01,3.88-10.93,2.65-16.16-.25-1.04-.6-2.02-1.04-2.94l.31-.44,2.79-3.96c2.75-3.9,2.69-9.65-.14-13.65-1.82-2.58-4.58-4.05-7.58-4.05h0c-3.04,0-5.86,1.51-7.71,4.15l-5.57,7.91c-1.09,1.55-1.74,3.4-1.95,5.3-.48.4-.94.83-1.38,1.31-3.37,3.69-4.83,9.29-5.43,14.33-.94-1.93-2.22-3.98-4.57-6.08-1.66-1.49-3.77-2.31-5.95-2.31-2.33,0-4.59.94-6.35,2.58-1.77-2.06-4.23-3.27-6.96-3.28-1.87,0-3.73.59-5.37,1.71-.85.57-1.68,1.18-2.48,1.81-1.62-1.17-3.52-1.73-5.31-1.73-4.53,0-8.49,3.36-9.64,8.17-.69,2.91-1.74,5.61-3.16,8.14-.15-2.7-.19-6.25-.07-10.95.04-1.54.06-2.78.05-3.58-.12-5.71-4.87-10.72-10.15-10.73-2.8,0-6.38,1.52-8.13,5.63-.56-.12-1.14-.2-1.73-.2-1.67,0-3.33.5-4.8,1.44-3.45,2.22-7.8,3.44-12.25,3.44-4.73,0-9.13-1.37-12.46-3.86,3.02-11.47,5.27-22.22,6.85-32.76,5.31-35.56,2.04-64.17-9.74-85.06C392.58,10.82,374.86.02,358.2,0h-.03c-9.12,0-17.47,3.23-24.15,9.33-20.89,19.09-12.82,55.63-4.93,81.45,4.6,15.09,11.25,29.75,19.74,43.58,1.38,2.25,2.83,4.57,4.38,6.86-4.25,3.3-8.18,6.76-11.69,9.91-9.5,8.51-17.78,18.15-24.59,28.65-13.76,21.23-20.92,44.97-20.7,68.66.13,13.41,4.67,24.28,12.78,30.62,3.98,3.1,8.29,4.68,12.85,4.68,7.18,0,14.33-3.94,21.28-11.71,16.76-18.75,30.67-42.52,42.52-72.65,4.84-12.31,8.92-23.64,12.37-34.36,5.75,3.17,12.38,4.89,19.23,4.9.79,0,1.55-.12,2.34-.16-.69.61-1.36,1.22-2.09,1.81-4.1,3.28-4.49,8.9-3.05,13.01,1.48,4.22,4.88,6.84,8.87,6.84,2.09,0,4.11-.74,5.86-2.14,3.01-2.41,5.8-5.04,8.35-7.88,1.62,3.59,4.05,6.76,7.72,8.54,1.67,1.6,3.82,2.51,6.12,2.51,1.35,0,3.3-.32,5.3-1.73.27-.07.54-.16.81-.24,2.05-.65,3.73-1.94,4.92-3.69,1.1.47,2.28.71,3.46.71,2.08,0,4.61-.83,6.49-2.97.56,1.54,1.41,2.99,2.52,4.2,1.88,2.09,4.31,3.24,6.86,3.24,3.15,0,7.06-1.87,8.61-7.11.74-2.51,1.58-4.94,2.55-7.3.86.88,1.87,1.69,3.09,2.39,2.27,1.32,4.82,1.98,7.55,1.99,2.56,0,5-.59,7.18-1.43,4.04,3.61,9.27,5.71,14.7,5.71.83,0,1.66-.05,2.47-.15.77.23,1.58.35,2.41.35,1.72,0,3.43-.53,4.92-1.53.11-.08.23-.16.34-.23,1.47,1.05,3.17,1.62,4.96,1.62,1.51,0,5.27-.47,7.81-4.83.59-1.04,1.2-2.05,1.83-3.02.11.2.23.39.36.58,1.72,2.55,4.43,4.02,7.42,4.02.47,0,.95-.04,1.45-.11,4.36-.68,8.49-1.59,12.3-2.72,2.5,2.07,5.59,3.16,9.05,3.16s7.15-1.07,11.06-3.18c1.53,3.6,4.71,5.85,8.46,5.85,1.23,0,2.44-.24,3.62-.73.45-.19.87-.39,1.29-.6l.22-.11c.61-.23,1.24-.35,1.88-.35,1.72,0,3.37.84,4.48,2.26-1,.2-2.01.37-3.01.51-2.51.36-5.06.62-7.77.89-9.15.91-18.61,1.85-27.49,7.16-8.95,5.34-16.06,14.23-19.51,24.38-2.22,6.52-4.91,18.79,1.97,27.69,2.53,3.27,7.38,7.17,16.08,7.18,5.12,0,10.22-1.3,14.54-2.59,20.29-6.01,36.92-22.26,43.41-42.4.66-2.06,1.21-4.12,1.64-6.17,2.7-1.13,5.29-2.38,7.74-3.74,17.84-9.93,29.6-25.52,33.12-43.89.65-3.41-.2-6.86-2.35-9.45ZM665.4,154.17c-3.28,17.13-14.44,30.54-29.54,38.94-3.41,1.9-6.98,3.48-10.65,4.8-.41,3.15-1.15,6.27-2.1,9.2-5.71,17.75-20.71,32.4-38.59,37.69-3.62,1.07-8.19,2.29-12.47,2.29h-.02c-4.03,0-7.82-1.09-10.37-4.38-4.39-5.67-2.98-14.68-.85-20.94,2.87-8.44,8.71-15.93,16.38-20.51,9.89-5.91,21.57-5.5,32.6-7.1,3.61-.52,7.26-1.35,10.84-2.45-.1-3.13-.82-6.17-2.57-8.79-2.52-3.79-6.6-5.89-10.78-5.89h-.01c-1.61,0-3.23.31-4.79.95-.46.21-.89.45-1.36.65-.32.13-.6.19-.87.19h0c-2.7,0-3-6.09-.62-7.43.61-.34,1.22-.62,1.84-.86,6.25-3.01,11.02-7.59,14.05-13.64-.22-.01-.45-.02-.66-.02h-.01c-9.95,0-16.57,10.8-24.55,15.83-2.58,1.63-6.23,3.44-9.56,3.44h0c-1.95,0-3.79-.63-5.25-2.27-.55-.63-.97-1.34-1.29-2.1-5.2,1.94-10.79,3.22-15.95,4.02-.1.02-.2.03-.3.03-2.25,0-2.53-4.26-1.97-5.64,1.27-3.16,1.6-6.48.94-9.72-6.06,4.82-10.96,10.51-14.83,17.37-.51.88-1.05,1.24-1.56,1.24-1.33,0-2.49-2.46-2.49-4.57,0-.53.07-1.04.23-1.48-2.12,2.14-4.44,4.13-7.07,5.89-.32.21-.62.31-.89.31-.47,0-.86-.27-1.19-.73-1.21.35-2.44.52-3.69.52h-.01c-5.02,0-10.07-2.75-12.93-7.55-2.66,1.79-5.89,3.27-8.94,3.27h0c-1.38,0-2.72-.31-3.95-1.01-4.42-2.56-3.96-8.36-6.37-12.26-4.3,6.65-7.54,13.71-9.8,21.37-.41,1.4-1.03,1.94-1.68,1.94-1.39,0-2.93-2.49-2.93-4.41,0-.11,0-.22.02-.33.67-6.46.43-12.68-.63-18.96-5.17,4.26-8.79,9.63-10.37,16.42h0c-.08.3-.14.6-.22.91-.36,1.35-1.01,1.88-1.72,1.88-1.38,0-2.95-2.01-2.95-3.95,0-.25.03-.49.08-.74.07-.31.17-.6.24-.9,0,0-.01,0-.02-.01.36-1.34.64-2.65.84-3.96-1.88,3.53-4.2,6.78-7,9.76-.07,1.42-.63,2.73-1.77,3.09-.67.21-1.29.35-1.91.45-.23.21-.45.42-.69.62-.48.4-.92.57-1.33.57h0c-.72,0-1.32-.54-1.73-1.32-6.38-1.77-7.94-11.76-8.22-20.96-4.01,7.96-9.65,15.01-16.75,20.69-.48.39-.93.55-1.34.55-2.32,0-3.36-5.36-1.32-7,3.81-3.05,7.14-6.46,9.98-10.2,1.46-1.91,2.77-3.92,3.97-6.01-1.97,1.24-4.08,2.21-6.26,3.01-1.93.72-3.91,1.28-5.96,1.65,1.33-1.48,2.54-3.04,3.67-4.65-.16.05-.33.11-.49.16-.04.02-.09.03-.13.04-.41.13-.83.25-1.24.36-.21.06-.42.11-.63.16-.21.05-.41.1-.62.15-.01,0-.02,0-.03.01-.2.04-.41.09-.61.13-.19.04-.38.08-.57.11-.46.09-.92.17-1.37.23-.18.03-.35.05-.53.07-.12.02-.24.03-.36.05-.18.02-.35.04-.52.06-.4.04-.81.07-1.21.1-.2.02-.4.03-.61.03-.4.02-.81.03-1.22.03h-.02c-.35,0-.69,0-1.04-.02-.19,0-.38-.01-.57-.02-.43-.02-.86-.05-1.29-.09-.17-.02-.34-.03-.51-.05-.17-.02-.33-.04-.49-.05-.08-.01-.16-.02-.23-.03-.21-.03-.42-.05-.63-.08-.36-.05-.71-.11-1.06-.17-.23-.04-.46-.08-.68-.13-.24-.05-.48-.1-.71-.15-.47-.1-.93-.22-1.39-.34-.47-.13-.94-.27-1.4-.41-.21-.06-.42-.13-.63-.2-.04-.02-.08-.03-.12-.04-.2-.07-.4-.14-.6-.21-.16-.06-.31-.12-.47-.18-.2-.07-.39-.15-.59-.23-1.92-.78-3.76-1.74-5.48-2.88-.18-.11-.36-.23-.54-.36-.2-.13-.4-.27-.59-.42-.26-.19-.52-.38-.77-.58-.32-.24-.64-.5-.94-.76-.19-.16-.37-.32-.55-.48-.63-.56-1.24-1.15-1.82-1.77-.27.93-.55,1.85-.83,2.78-.56,1.85-1.13,3.7-1.72,5.55-.28.9-.57,1.79-.85,2.68-.49,1.51-.99,3.02-1.5,4.53-.29.86-.58,1.73-.88,2.59-.25.73-.5,1.45-.75,2.18-2.74,7.89-5.66,15.69-8.69,23.38-10,25.43-22.88,50-41.18,70.48-4.43,4.95-9.95,9.3-15.89,9.3h0c-2.74,0-5.57-.93-8.41-3.15-7.48-5.84-9.92-15.99-10.01-25-.22-22.93,7.1-45.49,19.54-64.66,6.51-10.03,14.44-19.23,23.35-27.2,4.28-3.83,9.3-8.24,14.67-12.11.77-.55,1.54-1.09,2.32-1.62-.35-.42-.69-.85-1.03-1.29,0,0-.01,0-.01-.01-.34-.43-.67-.87-1-1.32-.82-1.11-1.62-2.24-2.38-3.38-.27-.41-.55-.83-.82-1.24-1.09-1.66-2.12-3.32-3.12-4.94-8.06-13.11-14.5-27.19-18.99-41.91-6.25-20.46-15.81-56.92,2.89-74.02,5.72-5.22,12.44-7.44,19.28-7.44h.02c14.63.01,29.79,10.15,36.82,22.6,13.26,23.52,12.75,54.56,8.88,80.44-.38,2.54-.8,5.08-1.26,7.63-.08.48-.17.95-.26,1.42-.12.67-.25,1.33-.38,2-.11.62-.24,1.24-.36,1.85-.17.85-.34,1.7-.52,2.56-.31,1.47-.63,2.94-.95,4.4-.16.73-.33,1.47-.5,2.2-.17.73-.34,1.47-.52,2.2-.17.73-.35,1.46-.53,2.19-.36,1.46-.72,2.92-1.11,4.38-.15.59-.31,1.18-.46,1.76-.23.87-.47,1.74-.7,2.61-.07.26-.14.53-.22.8.15.18.31.36.47.54,0,.02.02.03.04.05.05.07.11.13.17.2.37.42.76.83,1.17,1.22.16.15.31.3.47.44.02.02.04.04.06.05.2.18.41.36.62.53,4.9,3.97,11.2,5.88,17.51,5.88h.02c5.72,0,11.45-1.57,16.15-4.59.08-.05.14-.04.22-.07.23-.11.47-.23.68-.23,1.12,0,1.86,1.52,2.02,3.23.67-1.59,1.26-3.23,1.79-4.91.58.68,1.1,1.49,1.43,2.63.26.9.4,1.88.41,2.87.81-1.98,1.52-4.02,2.11-6.12.12-.42.27-.83.38-1.26.35-1.35,1-1.87,1.71-1.87s1.4.48,1.97,1.18c.56.7.96,1.62.98,2.49.1,4.83-1.74,27.11,5.42,28.03,5.94-5.47,10.08-12.08,12-20.12.4-1.66,1.53-2.63,2.61-2.63.48,0,.95.2,1.34.61.38.41.68,1.04.83,1.91.28,1.71.48,3.38.6,5.04,2.41-3.38,5.4-6.37,9.09-8.89.47-.32.91-.46,1.32-.46.6,0,1.11.31,1.52.79.4.48.7,1.13.86,1.84.9,3.97,1.48,7.9,1.79,11.85,2.07-4.38,4.49-8.59,7.32-12.65.45-.65,1.13-1.13,1.84-1.13.38,0,.78.14,1.14.47,2.67,2.39,3.12,4.58,4.59,7.71,1.5,3.21,2.19,5.85,5.75,5.85.35,0,.74-.03,1.15-.08,1.71-.22,3.39-1.08,4.9-2.15-.77-8.37.73-21.85,7.47-21.85h0c.18,0,.36.01.54.03-.08-.08-.16-.16-.23-.26-1-1.41-1.14-3.88-.12-5.33,1.85-2.64,3.71-5.28,5.57-7.91.5-.71,1.15-1.09,1.81-1.09.6,0,1.21.32,1.69,1,1,1.42,1.15,3.88.13,5.33-1.86,2.64-3.71,5.28-5.57,7.92-.32.46-.71.77-1.13.94,8.34,3.73.88,18.62-3.84,24.37,1.99,2.53,5.35,4.03,8.6,4.03h.01c2.67,0,5.28-1.01,7-3.28.59-.78,1.18-1.1,1.72-1.1h0c.22,0,.45.06.65.16,5.95-5.76,10-13.15,13.92-20.51.47-.89,1-1.24,1.53-1.24,1.57,0,3.1,3.13,2.69,4.8-.49,2.02-1.05,4-1.64,5.96,1.69-1.51,3.47-2.95,5.36-4.31.45-.32.89-.47,1.3-.47.46,0,.87.18,1.23.48.36.31.66.74.88,1.26,1.98,4.75,2.61,9.44,1.91,14.17,3.59-.66,7.65-1.58,11.55-2.93.47-3.46,1.73-6.94,2.8-9.37,3-6.82,8.12-11.96,14.56-15.57.25-.14.5-.21.74-.21.62,0,1.16.44,1.57,1,.41.56.69,1.25.8,1.76,2.68,12.82-3.53,21.01-12.66,26.19.11.01.23.02.35.02,1.98,0,4.65-1.47,7.07-3.14,2.41-1.68,4.55-3.56,5.46-4.39,6.2-5.64,12.61-11.53,20.76-11.53h.01c1.67,0,3.41.25,5.24.8,2.06.62,2.09,3.95,1.61,5.5-1.82,5.86-4.84,10.88-8.88,14.97,4.02,1.65,7.51,4.87,9.62,8.98,1.67,3.25,2.54,6.77,2.82,10.38,16.89-6.52,31.61-19.49,35.11-37.76.35-1.85,1.24-2.6,2.16-2.6,1.52,0,3.13,2.02,2.66,4.49Z"/>
  <path d="M305.07,153.69c1.81-1.73,5.45-4.65,9.5-4.76h.24c.81,0,1.77.09,2.79.18,1.24.12,2.64.25,4.12.25s2.69-.12,3.93-.36c4.11-.81,7.88-3.53,9.84-7.11,1.68-3.07,1.93-6.49.69-9.62-1.52-3.85-5.18-6.44-9.13-6.44-.47,0-.94.04-1.41.11-2.03.32-3.47,1.23-4.26,1.74h-.06c-.59,0-1.47-.13-2.4-.27-.99-.15-1.98-.29-2.96-.36-.57-.04-1.14-.06-1.7-.06-5.11,0-10.42,1.74-15.36,5.03-.16.11-.32.22-.48.33-1.74-5.43-5.79-7.39-9.13-7.39-.19,0-.5.01-.68.03-2.53.19-6.02,1.49-8.27,6.59-.79,1.78-1.64,3.53-2.55,5.24-.24-.75-.57-1.47-.99-2.16-4.26-6.99-10.01-8.04-13.06-8.04-9.23,0-17.05,8.5-21.74,16.01-.51.1-1.03.25-1.54.45-.27-2.17-.93-4.33-2.19-6.38-3.25-5.28-7.54-6.07-9.8-6.08-2.38,0-4.44.79-6.16,1.87-.65-.16-1.33-.24-2.02-.24-2.19,0-4.31.85-6.03,2.41-1.47-.98-3.2-1.52-5.02-1.52-.27,0-.53.01-.81.03-1.53.13-3.33.35-5.29.86-1.12-.52-2.35-.8-3.64-.8-1.53,0-3.82.41-6.06,2.36-3.26,2.83-6.72,5.46-10.36,7.88,3.8-33.67-5.63-69.04-25.29-91.79-16.23-18.79-39.38-30.69-62.07-31.94-4.69-1.04-9.59-1.56-14.55-1.57h-.05c-10.64,0-21.37,2.4-31.02,6.94C12.02,43.01,3.17,87.55,1.13,105.86c-2.55,22.89-2.94,65.66,23.04,94.96,15.74,17.76,39.86,27.55,67.9,27.57,8.98,0,17.85-1.02,26.45-3.04,26.83-6.29,47.26-25.18,57.83-53.35,5.32-2.53,10.49-5.43,15.44-8.67-.92,2.18-1.88,4.34-2.86,6.47-1.87,4.04-.54,8.6,1.17,11.28,1.9,2.98,4.78,4.69,7.89,4.69,3.36,0,6.33-1.97,7.96-5.27,1.51-3.06,3.13-6,4.86-8.83,1.5,1.1,3.25,1.69,5.08,1.69.81,0,1.6-.12,2.36-.34.34.77.76,1.53,1.25,2.27,3.59,5.29,8.17,6.08,10.59,6.08,5.79,0,10.79-4.11,14.76-9.15,1.6.59,3.37.9,5.28.9,1.16,0,2.36-.11,3.59-.34,2.66-.48,5.14-1.43,7.42-2.82,2.36,1.59,5.25,2.44,8.5,2.45h.54c4.68-.14,8.7-2.48,12.12-5.78,1.7,1.57,3.95,2.5,6.3,2.5,1.82,0,3.56-.56,5.02-1.61,1.16-.83,1.84-1.75,2.17-2.2.66-.88,1.3-1.77,1.95-2.66,2.41-3.32,4.69-6.46,7.33-8.98ZM290.01,161.02c-.17.23-.35.47-.59.64-.25.18-.53.26-.82.26-.76,0-1.56-.54-1.9-1.25-.48-.99-.35-2.16-.21-3.25.53-4.1,1.06-8.2,1.6-12.31-3.23,6.01-10.19,19.87-18.09,20.09-.12,0-.23,0-.35,0-4.39,0-6.58-2.45-7.5-5.76-2.42,3.1-5.52,5.49-9.72,6.26-.81.15-1.57.22-2.29.22h-.01c-3.54,0-5.81-1.8-6.46-5.06-3.22,5.84-8.7,13.31-13.57,13.31h0c-1.65,0-3.22-.86-4.62-2.92-2.78-4.1-.74-10.67.37-14.88.63-2.4,2.63-8.8,1.26-8.8-.41,0-1.12.57-2.25,1.98-1,1.24-1.85,2.67-2.63,4.17-.84,3.89-2.38,7.61-4.66,11.19-.56.87-1.12,1.23-1.65,1.23-1.73,0-3.06-3.86-2.35-5.7.51-1.33,1.96-5.15,3.92-9.27.02-.11.04-.21.06-.32-7.27,7.93-13.26,16.72-18.06,26.46-.44.89-.96,1.25-1.48,1.25h0c-1.69,0-3.42-3.78-2.52-5.72,3.59-7.75,6.68-15.64,9.33-23.72-3.53,1.78-5.37,5-9.34,6.69-.22.09-.45.14-.67.14-.45,0-.88-.18-1.25-.47-.52-.42-.9-.85-1.19-1.29-6.8,4.92-14.12,9.13-21.78,12.54-8.54,24.89-26.16,45.15-53.71,51.61-7.93,1.86-16.31,2.85-24.73,2.85h-.07c-23.31-.01-46.95-7.59-62.51-25.14-20.91-23.59-24.62-59.24-21.27-89.38,3.28-29.45,16.54-61.7,44.88-75.03,8.7-4.09,18.38-6.25,27.95-6.25h.04c4.59,0,9.16.5,13.57,1.53,21.9,1,43.39,13.03,57.59,29.48,21.77,25.21,29.44,66.21,20.99,100.91,8.93-4.3,17.34-9.75,24.85-16.27.48-.41.92-.59,1.33-.59h0c.87,0,1.56.81,1.96,1.91,2.41-1.26,4.84-1.75,7.57-1.99.07,0,.13,0,.2,0,2.44,0,2.52,4.1,2.08,5.63-.39,1.32-.82,2.63-1.23,3.94,2.78-3.41,5.75-6.7,8.94-9.83.45-.45.88-.63,1.27-.63,1.11,0,1.93,1.49,2.31,2.75,1.91-2.59,3.93-4.38,5.87-4.38h0c1.28,0,2.52.79,3.66,2.64,2.73,4.43.41,11.02-.79,15.53-.86,3.27-2.5,9.47-.16,9.48.76,0,1.93-.65,3.69-2.25,3.48-3.19,5.6-7.19,7-11.66.43-1.36,1.05-1.89,1.71-1.89h0c.7,0,1.42.61,1.96,1.49,3.65-7.84,11.43-17.35,18.2-17.35h0c2.53,0,4.92,1.33,6.9,4.58,1.27,2.09-.08,6.58-1.85,6.58h0s-.07,0-.11,0c.26,2.04-1.19,3-.66,5.05.44,1.73,2.51,3.23,3.85,4.23.49.37,1.04.75,1.64.75.07,0,.14,0,.21-.02.61-.1,1.06-.61,1.45-1.1,4.74-5.92,8.71-12.46,11.78-19.4.46-1.03,1.1-2.23,2.23-2.32.04,0,.09,0,.13,0,1.31,0,2.07,1.57,2.4,2.88.98,3.88,1.44,7.88,1.36,11.88,3.06-3.21,6.16-6.45,9.85-8.91,3.37-2.25,7.33-3.82,11.36-3.82.38,0,.77.01,1.15.04l9.31-.14c.66-.38,1.27-.91,2.03-1.03.1-.02.2-.02.3-.02,1.05,0,2.02.86,2.41,1.87,1.22,3.09-1.95,6.36-5.21,7-.84.17-1.69.23-2.54.23-2.29,0-4.6-.44-6.91-.44-.15,0-.3,0-.45,0-5.41.16-10.39,3.05-14.28,6.76-3.89,3.71-6.88,8.24-10.08,12.55Z"/>
  <path d="M132.5,47.34c-4.05-2.7-8.49-5.05-13.15-6.98,1.64,1.66,3.18,3.45,4.6,5.41,1.48,2.02.2,6.52-1.73,6.52h0c-.52,0-1.08-.32-1.64-1.1-6.2-8.5-14.86-13.83-24.43-16.43-1.61-.12-3.21-.18-4.81-.18h-.04c-15.06,0-29.59,5.33-39.42,18.28-17.61,23.2-13.66,55.41,1.75,78.52,17.16,25.72,43.98,37.12,71.68,37.14h.06c13.96,0,28.14-2.89,41.41-8.3,3.42-11.87,4.77-24.43,4.56-36.11-.54-30.07-13.32-59.72-38.84-76.77ZM160.76,154.81c-11.51,4.25-23.67,6.49-35.39,6.49l-.03,3.61s-.02,0-.03,0v-3.61c-27.77-.02-51.09-12.07-65.67-33.93-12.87-19.29-18.48-48.46-2.01-70.16,9.68-12.75,23.65-15.43,33.67-15.43,1.21,0,2.42.04,3.62.11,8.26,2.38,15.11,7.05,19.83,13.53,2.58,3.54,5.79,4.07,7.48,4.07,3.27,0,6.22-1.86,7.96-4.99,20.77,14.76,33.41,40.66,33.94,69.73.19,10.52-.97,21.01-3.36,30.57Z"/>
  <path d="M125.55,176.54c-7.98,0-15.98-.95-23.86-2.93-32.04-8.07-57.39-35.07-64.53-67.22-5.39-24.26.96-53.98,21.39-69.17-4.27,1.67-8.34,3.78-12.03,6.32C19.41,62.16,11.38,98.67,12.35,129.6c.93,29.46,10.83,60.54,38.75,74.79,12.28,6.27,27.08,9.53,41.87,9.54h.06c15.22,0,30.41-3.44,42.82-10.59,13.2-7.61,22.12-19.84,27.71-33.76-12.16,4.5-25.02,6.97-37.95,6.97h-.07ZM132.25,197.08c-10.77,6.21-24.7,9.63-39.21,9.63l-.03,3.61s-.02,0-.03,0h0v-3.61c-13.85,0-27.56-3.12-38.59-8.75-28.88-14.74-34.21-49.3-34.82-68.58-.36-11.54.38-34.32,9.82-54.23-1.9,11.42-1.47,22.95.72,32.81,7.88,35.44,35.28,63.95,69.81,72.65,8.28,2.09,16.9,3.15,25.62,3.15,7.92,0,15.83-.84,23.68-2.51-4.68,6.72-10.36,12.02-16.98,15.84Z"/>
  <path d="M262.44,141.79c-.29-.22-.66-.33-1.08-.33-1.86,0-4.8,2.08-7.27,5.31-3.02,3.96-4.19,8.15-2.61,9.36.29.22.66.33,1.08.33,1.86,0,4.8-2.08,7.27-5.31,3.02-3.96,4.19-8.15,2.61-9.36Z"/>
</svg>