<?xml version="1.0" encoding="UTF-8"?>
<svg id="Layer_1" data-name="Layer 1" xmlns="http://www.w3.org/2000/svg" viewBox="0 0 267.66 257.76">
  <path d="M267.35,50.76c-1.3-5.57-6.42-9.61-11.68-12.41-14.23-7.58-31.9-9.15-47.37-4.21-3.54,1.13-7.17,2.74-9.15,5.74-9.95,15.01,25.15,20.41,33.7,14.36-7.05,4.99-14.99,8.86-23.39,11.38-1.93.58-3.95,1.09-5.95.8-5.09-.75-7.64-6-10.22-10.21-10.14-16.56-32.97-24.12-52.7-19.83-19.73,4.29-35.89,18.87-44.37,36.24-2.39,4.9-4.32,10.14-8.17,14.13-13.44,13.95-22.52-2.95-20.59-15.22,4.32-27.49,28.24-51.24,57.09-56.69,4.22-.8,9.46-2.03,10.32-6.01.31-1.43-.04-2.7-.82-3.8-1.82-2.57-5.99-4.2-9.57-4.63-19.05-2.27-38.56,5.15-52.63,17.48-14.08,12.33-23.12,29.15-28.21,46.64-1.14,3.93-2.18,8.05-4.91,11.2-2.24,2.6-5.42,4.28-8.53,5.91-7.41,3.88-14.81,7.77-22.22,11.65-7.58,3.97-10.99,11.81-4.68,18.97,4.34,4.92,11.5,6.84,18.28,6.97,6.78.12,13.48-1.27,20.24-1.76,1.49-.11,3.06-.15,4.37.53,1.85.97,2.58,3.09,3.24,4.99,3.69,10.64,10.1,20.37,18.38,28.38-7.42,14.65-9.98,31.96-9.19,48.55.21,4.35.62,14.63,1.13,18.95.42,3.5,2.32,8.9,1.57,12.33-1.27,5.83-11.88,2.18-15.91,1.88-5.92-.43-11.83-.86-17.75-1.3-4.42-.32-9.3-.51-12.76,2.24-4.36,3.46-4.07,10.05-1.07,14.89.94,1.52,2.15,2.87,3.57,3.89,5.93,4.28,13.77,4.51,21.09,4.58,12.66.12,25.33.24,37.99.37,5.94.06,13.22-.69,15.62-6.13,1.53-3.46.34-7.44-.72-11.08-3.85-13.28-5.64-33.1-5.28-46.91.24-9.09,1.49-18.36,4.71-26.8,2.21.97,4.47,1.85,6.77,2.61,19.33,6.41,40.36,5,58.48-2.96,3.32,8.53,4.6,17.93,4.84,27.15.36,13.82-1.43,33.64-5.28,46.91-1.05,3.63-2.25,7.62-.72,11.08,2.4,5.44,9.68,6.18,15.62,6.13,12.66-.12,25.33-.24,37.99-.37,7.32-.07,15.15-.3,21.09-4.58,1.42-1.02,2.63-2.37,3.57-3.89,3-4.84,3.28-11.42-1.07-14.89-3.47-2.75-8.35-2.57-12.76-2.24-5.92.43-11.83.86-17.75,1.3-4.03.29-14.63,3.95-15.9-1.88-.75-3.42,1.15-8.83,1.57-12.33.51-4.32.93-14.61,1.13-18.95.79-16.64-1.78-34.02-9.26-48.69,10.4-9.57,19.87-22.3,22.06-35.48,1.63-9.81-.06-27.53,13.74-30.14,12.69-2.4,24.98-6.67,36.29-12.6,4.47-2.35,8.87-5.02,12.09-8.76,3.22-3.75,5.15-8.76,4.04-13.47ZM125.41,71.8c2.89-4.22,11.86-11.89,16.96-13.22.49-.13,7.44-.79,7.88-.76,1.45.1,10.08,1.96,11.13,2.59.44.26,4.5,3.1,4.66,3.34.21.33.06.96.3,1.25,1.01,1.27,5.01,6.06,4.01,7.6-.53.82-7.72,1.49-9.17,2.02-11.7,1.11-22.85,4.74-34.55,5.18-1.11.04-3.76,1.71-4.49-.56-.45-1.41,2.33-6.08,3.27-7.44ZM78.73,110.24c10.63-1.95,22.12-3.39,32.93-5.67,15.87-3.36,29.87-5.35,45.9-7.55,4.22-.58,8.96-2.56,13.53-3.04,4.05-.42,6.04,1.53,6.31,5.34.57,7.83-6.9,23.29-11.51,29.48-.68.92-1.36,1.83-2.05,2.73-8.98-7.74-20.2-12.88-31.96-14.41-2.78-.36-5.59-.51-8.4-.47-2.81-.04-5.62.11-8.4.47-11.46,1.49-22.42,6.42-31.28,13.84-.99-1.33-1.94-2.73-2.84-4.21-.93-1.52-1.65-4.03-2.65-5.41-.51-.71-1.34-.87-1.71-1.48-.43-.72-.62-2.54-.96-3.56-1.4-4.15-2.91-4.95,3.08-6.05ZM104.91,147.17c5.43-4.2,11.88-6.95,18.58-7.34,7.55.44,14.8,3.89,20.61,9.02-4.55,1.71-10.08,2.84-13.84,2.81-9.26-.07-17.79-1.46-25.35-4.49Z"/>
</svg>