<?xml version="1.0" encoding="UTF-8"?>
<svg id="Layer_1" data-name="Layer 1" xmlns="http://www.w3.org/2000/svg" viewBox="0 0 288.41 186.93">
  <path d="M144.43,5.42c.84,1.18,1.21,2.56.88,4.09-.93,4.29-6.57,5.62-11.12,6.48-31.09,5.87-56.86,31.47-61.52,61.08-2.08,13.22,7.71,31.43,22.19,16.4,4.14-4.3,6.22-9.95,8.8-15.23,9.14-18.71,26.54-34.43,47.81-39.05,21.26-4.63,45.86,3.52,56.79,21.36,2.78,4.54,5.53,10.2,11.01,11,2.15.32,4.34-.24,6.41-.86,9.05-2.72,17.61-6.88,25.21-12.26-9.21,6.52-47.04.7-36.31-15.47,2.14-3.22,6.05-4.96,9.86-6.18,16.67-5.32,35.71-3.63,51.04,4.53,5.67,3.02,11.18,7.37,12.59,13.37,1.19,5.08-.88,10.48-4.36,14.52-3.47,4.04-8.22,6.92-13.03,9.44-12.19,6.39-25.43,10.99-39.1,13.58-14.88,2.82-13.05,21.91-14.81,32.48-2.72,16.37-15.84,32.07-28.92,42.69-22.61,18.37-54.36,24.59-82.72,15.18-24.17-8.01-43.92-27.07-51.89-50.06-.71-2.05-1.5-4.33-3.49-5.38-1.4-.74-3.1-.69-4.7-.57-7.28.53-14.5,2.03-21.81,1.9-7.3-.13-15.02-2.21-19.7-7.51-6.8-7.71-3.12-16.16,5.04-20.44,7.98-4.18,15.96-8.37,23.94-12.55,3.34-1.75,6.77-3.57,9.19-6.37,2.94-3.4,4.05-7.84,5.29-12.07,5.49-18.84,15.23-36.96,30.4-50.25C92.58,5.98,113.59-2.01,134.12.44c3.86.46,8.35,2.21,10.31,4.99ZM178.91,68.7c-.17-.26-4.55-3.32-5.02-3.6-1.12-.68-10.43-2.68-11.99-2.79-.48-.03-7.97.68-8.5.82-5.49,1.43-15.16,9.7-18.28,14.24-1.01,1.47-4.01,6.5-3.52,8.02.79,2.44,3.65.65,4.84.6,12.61-.47,24.62-4.38,37.23-5.58,1.56-.57,9.31-1.3,9.88-2.18,1.08-1.66-3.23-6.82-4.32-8.19-.25-.32-.09-1-.32-1.35ZM178.76,138.78c4.96-6.66,13.01-23.32,12.4-31.76-.3-4.11-2.44-6.21-6.8-5.76-4.93.51-10.03,2.65-14.58,3.27-17.28,2.37-32.36,4.52-49.46,8.14-11.64,2.47-24.03,4.01-35.48,6.11-6.45,1.18-4.83,2.04-3.32,6.51.37,1.1.58,3.06,1.04,3.84.39.66,1.29.83,1.84,1.6,1.08,1.49,1.85,4.19,2.85,5.83,11.63,19.06,30.31,26.68,53.11,26.85,5.93.05,15.92-2.59,20.75-5.92,7.44-5.15,12.42-11.69,17.65-18.72Z"/>
  <path d="M144.43,5.42c.84,1.18,1.21,2.56.88,4.09-.93,4.29-6.57,5.62-11.12,6.48-31.09,5.87-56.86,31.47-61.52,61.08-2.08,13.22,7.71,31.43,22.19,16.4,4.14-4.3,6.22-9.95,8.8-15.23,9.14-18.71,26.54-34.43,47.81-39.05,21.26-4.63,45.86,3.52,56.79,21.36,2.78,4.54,5.53,10.2,11.01,11,2.15.32,4.34-.24,6.41-.86,9.05-2.72,17.61-6.88,25.21-12.26-9.21,6.52-47.04.7-36.31-15.47,2.14-3.22,6.05-4.96,9.86-6.18,16.67-5.32,35.71-3.63,51.04,4.53,5.67,3.02,11.18,7.37,12.59,13.37,1.19,5.08-.88,10.48-4.36,14.52-3.47,4.04-8.22,6.92-13.03,9.44-12.19,6.39-25.43,10.99-39.1,13.58-14.88,2.82-13.05,21.91-14.81,32.48-2.72,16.37-15.84,32.07-28.92,42.69-22.61,18.37-54.36,24.59-82.72,15.18-24.17-8.01-43.92-27.07-51.89-50.06-.71-2.05-1.5-4.33-3.49-5.38-1.4-.74-3.1-.69-4.7-.57-7.28.53-14.5,2.03-21.81,1.9-7.3-.13-15.02-2.21-19.7-7.51-6.8-7.71-3.12-16.16,5.04-20.44,7.98-4.18,15.96-8.37,23.94-12.55,3.34-1.75,6.77-3.57,9.19-6.37,2.94-3.4,4.05-7.84,5.29-12.07,5.49-18.84,15.23-36.96,30.4-50.25C92.58,5.98,113.59-2.01,134.12.44c3.86.46,8.35,2.21,10.31,4.99ZM178.91,68.7c-.17-.26-4.55-3.32-5.02-3.6-1.12-.68-10.43-2.68-11.99-2.79-.48-.03-7.97.68-8.5.82-5.49,1.43-15.16,9.7-18.28,14.24-1.01,1.47-4.01,6.5-3.52,8.02.79,2.44,3.65.65,4.84.6,12.61-.47,24.62-4.38,37.23-5.58,1.56-.57,9.31-1.3,9.88-2.18,1.08-1.66-3.23-6.82-4.32-8.19-.25-.32-.09-1-.32-1.35ZM178.76,138.78c4.96-6.66,13.01-23.32,12.4-31.76-.3-4.11-2.44-6.21-6.8-5.76-4.93.51-10.03,2.65-14.58,3.27-17.28,2.37-32.36,4.52-49.46,8.14-11.64,2.47-24.03,4.01-35.48,6.11-6.45,1.18-4.83,2.04-3.32,6.51.37,1.1.58,3.06,1.04,3.84.39.66,1.29.83,1.84,1.6,1.08,1.49,1.85,4.19,2.85,5.83,11.63,19.06,30.31,26.68,53.11,26.85,5.93.05,15.92-2.59,20.75-5.92,7.44-5.15,12.42-11.69,17.65-18.72Z"/>
</svg>