<?xml version="1.0" encoding="UTF-8"?>
<svg id="Layer_1" data-name="Layer 1" xmlns="http://www.w3.org/2000/svg" viewBox="0 0 307.18 135.76">
  <defs>
    <style>
      .cls-1 {
        fill: #fff;
      }
    </style>
  </defs>
  <g>
    <path class="cls-1" d="M151.71,135.76c35.9,0,65.22-27.89,67.65-63.18-44.86,13.1-90.24,22.07-127.12,28.01,11.55,20.96,33.85,35.17,59.47,35.17Z"/>
    <path class="cls-1" d="M84.11,73.56c.49,5.86,1.74,11.49,3.62,16.84,37.79-6,85.08-15.27,131.53-29.04-.47-4.91-1.47-9.67-2.93-14.22-.28.05-.58.1-.86.16l-.99-5.21C204.32,17.39,180.06,0,151.71,0c-37.49,0-67.88,30.39-67.88,67.88l1.95,5.03c-.55.21-1.11.44-1.66.65Z"/>
    <path class="cls-1" d="M306.93,31.85c-1.72-6.23-10.44-6.26-20-5.72-7.48.42-17.69,1.56-30.37,3.39-21.43,3.08-42.89,7.13-43.1,7.17l1.02,5.39c.68,1.65,1.3,3.34,1.85,5.06,25.97-4.89,55.26-9.25,71.13-10.25-5.58,2.59-14.38,6.26-28.24,11.33-13.07,4.79-26.48,9.15-39.96,13.15.21,2.15.33,4.32.33,6.53,0,1.59-.13,3.14-.24,4.7,14.69-4.29,29.32-9.02,43.57-14.24,14.8-5.42,25.81-9.94,32.72-13.43,4.89-2.47,13.06-6.61,11.29-13.05Z"/>
    <path class="cls-1" d="M24.37,98.82c14.55-6.97,37.77-16.72,59.74-25.26-.16-1.88-.29-3.76-.29-5.68h0s-1.95-5.03-1.95-5.03c-.2.08-20.25,7.85-39.88,16.25-11.59,4.96-20.79,9.17-27.35,12.52-9.3,4.75-15.79,8.56-14.48,14.24,1.01,4.39,5.3,5.15,8.65,5.15,1.12,0,2.14-.09,2.9-.15.67-.05,33.73-2.74,80.51-10.28-1.79-3.24-3.26-6.66-4.5-10.19-27.49,4.37-49.97,7.02-63.36,8.43Z"/>
  </g>
  <g>
    <path class="cls-1" d="M151.71,135.76c35.9,0,65.22-27.89,67.65-63.18-44.86,13.1-90.24,22.07-127.12,28.01,11.55,20.96,33.85,35.17,59.47,35.17Z"/>
    <path class="cls-1" d="M84.11,73.56c.49,5.86,1.74,11.49,3.62,16.84,37.79-6,85.08-15.27,131.53-29.04-.47-4.91-1.47-9.67-2.93-14.22-.28.05-.58.1-.86.16l-.99-5.21C204.32,17.39,180.06,0,151.71,0c-37.49,0-67.88,30.39-67.88,67.88l1.95,5.03c-.55.21-1.11.44-1.66.65Z"/>
    <path class="cls-1" d="M306.93,31.85c-1.72-6.23-10.44-6.26-20-5.72-7.48.42-17.69,1.56-30.37,3.39-21.43,3.08-42.89,7.13-43.1,7.17l1.02,5.39c.68,1.65,1.3,3.34,1.85,5.06,25.97-4.89,55.26-9.25,71.13-10.25-5.58,2.59-14.38,6.26-28.24,11.33-13.07,4.79-26.48,9.15-39.96,13.15.21,2.15.33,4.32.33,6.53,0,1.59-.13,3.14-.24,4.7,14.69-4.29,29.32-9.02,43.57-14.24,14.8-5.42,25.81-9.94,32.72-13.43,4.89-2.47,13.06-6.61,11.29-13.05Z"/>
    <path class="cls-1" d="M24.37,98.82c14.55-6.97,37.77-16.72,59.74-25.26-.16-1.88-.29-3.76-.29-5.68h0s-1.95-5.03-1.95-5.03c-.2.08-20.25,7.85-39.88,16.25-11.59,4.96-20.79,9.17-27.35,12.52-9.3,4.75-15.79,8.56-14.48,14.24,1.01,4.39,5.3,5.15,8.65,5.15,1.12,0,2.14-.09,2.9-.15.67-.05,33.73-2.74,80.51-10.28-1.79-3.24-3.26-6.66-4.5-10.19-27.49,4.37-49.97,7.02-63.36,8.43Z"/>
  </g>
</svg>