<?xml version="1.0" encoding="UTF-8"?>
<svg id="Layer_1" data-name="Layer 1" xmlns="http://www.w3.org/2000/svg" viewBox="0 0 534.78 106.2">
  <defs>
    <style>
      .cls-1 {
        fill: #fff;
      }
    </style>
  </defs>
  <path class="cls-1" d="M426.09,84.12c-1.8-3.91-1.41-7.05,3.08-8.83,1.42-.56,3.06-.76,4.45-.15,3.51,1.54,3.09,6.27,4.27,9.28,1.55,3.93,4.04,7.78,7.28,10.53,4.47,3.77,10.17,3.05,14.5-.76,2.99-2.63,4.87-6.35,5.93-10.19,2.5-9.06,1.73-18.81,2.53-28.09.06-.65.11-1.32-.06-1.95s-.63-1.22-1.26-1.38c-1.27-.31-2.93,1.32-4.02,1.85-1.47.71-3.05,1.16-4.67,1.34-4.75.52-9.42-1.1-13.23-3.9-5.44-4-10.88-10.32-10.64-17.46.26-7.98,2.59-16.88,8.6-22.64,6.1-5.85,15.27-6.68,23.28-5.83,1.05.11,3.63,1.22,4.55.78,1.19-.57,1.03-2.41,1.46-3.44.71-1.67,2.12-2.22,3.86-2.57,4.79-.97,7.73,1.72,7.57,6.44-.43,12.6-1.39,25.17-2.47,37.72-.89,10.34-1.22,20.87-2.65,31.16-1.35,9.7-4.75,19.33-13.22,25.02-7.12,4.79-18.6,7.66-26.09,2.17-6.11-4.48-9.48-11.94-12.78-18.51-.1-.19-.19-.38-.27-.57ZM469.6,25.09c-.09-.63-.19-1.23-.29-1.8-.72-4.13-2.73-8.17-7.28-8.85-5.54-.83-10.45,2.29-13.08,7.07-2.62,4.76-4.06,13.19.65,17.18,4.18,3.53,12.78,2.25,16.98-.67,4.13-2.88,3.68-8.52,3.03-12.92Z"/>
  <path class="cls-1" d="M124.35,50.92c-.86.13-1.76.04-2.63-.05-3.31-.37-3.83-3.11-3.99-5.92-.25-4.55-.12-9.09-.22-13.64-.14-5.83-1.11-19.78-10.07-18.64-1.73.22-3.26,1.28-4.38,2.59-4.39,5.14-5.22,12.76-5.18,19.19.03,4.58.36,11-5.11,12.81-1.98.66-4.53.2-5.57-1.58-.58-.99-.61-2.19-.62-3.33-.11-8.79-.35-17.63-2.32-26.23-.33-1.43-.9-3.08-2.32-3.52-.91-.29-1.9.03-2.77.44-4.15,1.97-6.91,5.98-8.22,10.22-1.55,4.97-.48,10.27-.58,15.36-.03,1.29-.15,2.64-.88,3.71-.95,1.39-2.71,1.99-4.37,2.36-.91.2-1.86.37-2.76.13-1.37-.36-2.35-1.59-2.79-2.91s-.44-2.73-.46-4.12c-.11-6.32-.88-12.61-1.66-18.89-.37-2.99-.74-5.97-1.11-8.96s-.92-4.43,1.82-6.05c1.91-1.13,5.23-2.16,7.21-.7,1.56,1.16,1.1,6.63,1.34,8.44l4.64-4.15c2.5-2,6.76-3.83,9.91-4.57.92-.22,2.8-.42,3.65-.17,2.22.66,5.61,2.71,7.08,4.49.47.57,1.91,3.49,2.4,3.56.87.13,1.78-1.86,2.27-2.37,7.01-7.2,20.37-6.43,26.29,1.57,2.64,3.56,3.94,7.91,4.69,12.25.85,4.87,1.07,9.82,1.14,14.76.06,3.97,1.43,12.04-3.66,13.75-.26.09-.52.15-.78.19Z"/>
  <path class="cls-1" d="M372.31,55.21c-.86.13-1.76.04-2.63-.05-3.31-.37-3.83-3.11-3.99-5.92-.25-4.55-.12-9.09-.22-13.64-.14-5.83-1.11-19.78-10.07-18.64-1.73.22-3.26,1.28-4.38,2.59-4.39,5.14-5.22,12.76-5.18,19.19.03,4.58.36,11-5.11,12.81-1.98.66-4.53.2-5.57-1.58-.58-.99-.61-2.19-.62-3.33-.11-8.79-.35-17.63-2.32-26.23-.33-1.43-.9-3.08-2.32-3.52-.91-.29-1.9.03-2.77.44-4.15,1.97-6.91,5.98-8.22,10.22-1.55,4.97-.48,10.27-.58,15.36-.03,1.29-.15,2.64-.88,3.71-.95,1.39-2.71,1.99-4.37,2.36-.91.2-1.86.37-2.76.13-1.37-.36-2.35-1.59-2.79-2.91s-.44-2.73-.46-4.12c-.11-6.32-.88-12.61-1.66-18.89-.37-2.99-.74-5.97-1.11-8.96-.35-2.85-.92-4.43,1.82-6.05,1.91-1.13,5.23-2.16,7.21-.7,1.56,1.16,1.1,6.63,1.34,8.44l4.64-4.15c2.5-2,6.76-3.83,9.91-4.57.92-.22,2.8-.42,3.65-.17,2.22.66,5.61,2.71,7.08,4.49.47.57,1.91,3.49,2.4,3.56.87.13,1.78-1.86,2.27-2.37,7.01-7.2,20.37-6.43,26.29,1.57,2.64,3.56,3.94,7.91,4.69,12.25.85,4.87,1.07,9.82,1.14,14.76.06,3.97,1.43,12.04-3.66,13.75-.26.09-.52.15-.78.19Z"/>
  <path class="cls-1" d="M167.72,43.66c-.55.02-.77.42-1.25.71-2.43,1.48-4.8,3.45-7.62,4.11-2.22.52-4.64.15-6.83-.33-4.09-.89-9.03-2.53-12.06-5.57-1.97-1.98-3.13-4.67-3.65-7.38-1.07-5.53.46-12.33,3.2-17.26,4.56-8.21,11.2-11.35,20.36-12.42,2.67-.31,5.33.88,7.92,1.31-.12-1.24-.23-2.56.31-3.69,1.08-2.28,4.13-2.28,6.27-2.62,1.01-.17,1.42-.73,2.87-.4.94.22,1.74.73,2.03,1.7.18.62.16,1.27.13,1.91-.31,8.21-.5,16.51-.2,24.72.08,4.48.2,8.95.66,13.4.2,1.94.31,3.95-.23,5.83-.62,2.18-2.87,4.88-5.23,5.17-1.86.23-4.47-.28-5.66-1.8-.79-1.01-1.13-2.31-1.19-3.59-.06-1.18.49-2.7.18-3.78ZM166.4,26.01c-.05-1.6-.28-3.19-.59-4.71-.62-2.97-1.46-6.94-4.94-7.7-10.91-2.37-18.86,14.64-12.13,22.56,2.21,2.6,6.01,3.61,9.3,2.73,3.21-.86,5.77-3.37,7.17-6.33.97-2.04,1.27-4.29,1.2-6.54Z"/>
  <path class="cls-1" d="M522.11,46.19c-.57.02-.8.43-1.29.73-2.5,1.53-4.94,3.55-7.85,4.23-2.28.53-4.78.15-7.04-.34-4.21-.92-9.3-2.61-12.43-5.74-2.03-2.04-3.22-4.81-3.76-7.61-1.1-5.7.48-12.71,3.3-17.79,4.7-8.46,11.54-11.69,20.97-12.8,2.75-.32,5.49.9,8.16,1.35-.12-1.28-.23-2.63.32-3.8,1.11-2.35,4.25-2.34,6.45-2.7,1.04-.17,1.47-.76,2.96-.41.97.22,1.8.75,2.09,1.75.19.63.16,1.31.14,1.97-.32,8.46-.52,17.01-.2,25.47.09,4.62.2,9.22.68,13.8.21,2,.32,4.06-.23,6-.64,2.24-2.95,5.03-5.39,5.33-1.92.23-4.61-.29-5.83-1.86-.81-1.04-1.17-2.38-1.23-3.7-.06-1.21.5-2.78.19-3.9ZM520.75,28c-.05-1.64-.29-3.29-.61-4.86-.64-3.06-1.5-7.15-5.09-7.93-11.24-2.44-19.43,15.09-12.5,23.24,2.27,2.68,6.19,3.72,9.58,2.81,3.3-.89,5.94-3.48,7.39-6.52.99-2.1,1.31-4.42,1.24-6.74Z"/>
  <path class="cls-1" d="M49.27,21.95c.47,8.28-2.56,16.77-9.16,21.99-6.89,5.44-14.82,5.23-23,3.78-4.02-.71-8.08-2.08-10.99-5.08-3.09-3.19-4.49-7.76-5.48-12C-2.8,15.91,8.06,6.54,20.72,1.97c4.28-1.55,9.43-1.09,13.86-.51,4.1.54,7.88,3.32,10.16,6.69,2.74,4.04,4.25,8.89,4.53,13.81ZM36.11,20.94c-.6-4.13-2.78-8.28-6.4-10.21-2.88-1.54-6.64-1.3-9.65-.29-3.4,1.14-6.33,3.52-8.33,6.49-4.65,6.92.06,15.27,6.11,19.67,3.88,2.82,9.96,4.55,13.73.67,3.74-3.86,5.3-11.1,4.54-16.32Z"/>
  <path class="cls-1" d="M297.23,24.69c.47,8.28-2.56,16.77-9.16,21.99-6.89,5.44-14.82,5.23-23,3.78-4.02-.71-8.08-2.08-10.99-5.08-3.09-3.19-4.49-7.76-5.48-12-3.44-14.73,7.42-24.09,20.07-28.66,4.28-1.55,9.43-1.09,13.86-.51,4.1.54,7.88,3.32,10.16,6.69,2.74,4.04,4.25,8.89,4.53,13.81ZM284.07,23.67c-.6-4.13-2.78-8.28-6.4-10.21-2.88-1.54-6.64-1.3-9.65-.29-3.4,1.14-6.33,3.52-8.33,6.49-4.65,6.92.06,15.27,6.11,19.67,3.88,2.82,9.96,4.55,13.73.67,3.74-3.86,5.3-11.1,4.54-16.32Z"/>
  <path class="cls-1" d="M427.06,23.35c-.48,1.5-1.68,2.7-3.32,3.25-1.53.52-3.18.5-4.79.48-5.96-.06-12.01-.27-17.96.05-1.07.06-3.41-.09-3.79,1.26-.13.45-.06.94.02,1.4.47,2.99.58,6.37,1.77,9.16,1.12,2.62,2.77,5,4.95,6.85,2.47,2.09,5.8,2.2,8.87,1.79,2.83-.38,5.45-1.72,8.31-2.03,4.49-.49,8.59,4.59,4.02,7.84-1.02.73-2.25,1.1-3.46,1.44-6.63,1.87-13.85,2.95-20.56.84-12.34-3.88-19.31-20.23-16.18-32.22,2.07-7.94,6.7-13.85,14.97-15.78,9.77-2.29,24.76,1.98,27.24,13.07.2.91.16,1.79-.1,2.59ZM412.11,18.36c1.1-1.48-.87-3.17-2.02-3.85-2.06-1.2-4.91-1.12-7.08-.29-1.14.44-2.08,1.17-2.91,2.07-.49.53-.94,1.12-1.28,1.75-.07.13-.59,1.61-.57,1.6,1.58-.3,3.19-.23,4.8-.33,1.99-.12,3.98-.13,5.96-.23.77-.04,2.57-.02,3.09-.7,0,0,0-.01.01-.02Z"/>
  <path class="cls-1" d="M191.35,49.85c-2.52-2.32-1.99-7.52-2.2-10.55-.24-3.46-.3-6.94-.33-10.41-.05-6.84.08-13.7-.61-20.52-.11-1.1-.23-2.23.1-3.28.44-1.42,1.66-2.49,3.02-3.1s2.86-.8,4.34-.95c.69-.07,1.41-.13,2.08.08,3.03.98,2.45,5.83,2.67,8.29,2.4-1.64,5.03-2.94,7.79-3.86,2.62-.87,5.43-1.39,8.13-.86s5.29,2.26,6.27,4.84-.04,5.92-2.56,7.05c-1.58.71-3.48.49-5.01-.33-1.5-.8-2.79-2.15-4.48-2.37-5.09-.66-6.22,6.63-6.85,10.08-.81,4.46-1.17,9.01-1.09,13.55.1,5.02,1.21,13.52-5.94,14.2-1.9.18-3.95-.59-5.35-1.88Z"/>
  <path class="cls-1" d="M238.1,43.8c.32.78.44,1.65.3,2.55-.67,4.37-5.25,6.95-9.2,5.96-2.99-.75-5.65-3.39-4.94-6.8,1.04-5.07,8.36-6.62,12.06-3.95.79.57,1.41,1.35,1.78,2.23Z"/>
</svg>